<svg role="img" viewBox="0 0 24 24" xmlns="http://www.w3.org/2000/svg" fill="currentColor"><path d="M24 18.588a1.529 1.529 0 0 1-1.895-1.414l-3.085-9.171H20.6a1.456 1.456 0 0 1 1.216 2.235L13.992 18.6l-1.805-5.182L18.4 6.2h-3.653L12.4 2.4 9.6 6.2H5.947L10.8 13.418l-1.805 5.182L2.184 9.648a1.456 1.456 0 0 1 1.216-2.235h3.085L3.385 17.174a1.529 1.529 0 0 1-1.895 1.414 1.529 1.529 0 0 1-1.414-1.895L5.2 6.2H2.4a2.4 2.4 0 0 1 0-4.8h7.2l1.8 3.6 1.8-3.6h7.2a2.4 2.4 0 0 1 0 4.8h-2.8l3.085 9.171a1.529 1.529 0 0 1-1.414 1.895z"/></svg>
