<svg role="img" viewBox="0 0 24 24" xmlns="http://www.w3.org/2000/svg" fill="currentColor"><path d="M12.095 10.639 4.346 5.5v9l7.75 5.139 7.75-5.139V5.5l-7.75 5.139zm-.01 2.275-2.5-1.656v3.312l2.5 1.656 2.5-1.656v-3.312l-2.5 1.656zm-2.5-4.656 2.5 1.656 2.5-1.656-2.5-1.656-2.5 1.656zM12.095 0 0 7.5v9l12.095 7.5L24 16.5v-9L12.095 0zM2.5 8.5l9.595 6 9.595-6-9.595-6L2.5 8.5zm0 7 9.595 6 9.595-6v-2l-7.595 4.5-2-1.25v-2.5l2-1.25 7.595 4.5v-2l-9.595-6v-2l9.595-6v-2l-9.595 6-9.595-6v2l9.595 6v2l-9.595 6v2l7.595-4.5 2 1.25v2.5l-2 1.25-7.595-4.5v2l9.595 6 9.595-6v2l-9.595 6-9.595-6z"/></svg>
